<svg xmlns="http://www.w3.org/2000/svg" width="45.812" height="35.81" viewBox="0 0 45.812 35.81">
  <defs>
    <style>
      .cls-1 {
        fill: #78cddc;
        fill-rule: evenodd;
        opacity: 0.45;
      }
    </style>
  </defs>
  <path id="_" data-name="“" class="cls-1" d="M469.728,2811.98q-15.528,9.825-15.527,25.39,0,10.41,9.082,10.41,8.495,0,8.5-8.64,0-2.655-2.871-5.82-2.871-3.18-2.871-5.59a8.562,8.562,0,0,1,3.223-6.75l4.394-3.77Zm-26.366,0q-15.528,9.825-15.527,25.39,0,10.41,9.082,10.41,8.495,0,8.5-8.64,0-2.655-2.871-5.82-2.871-3.18-2.871-5.59a8.562,8.562,0,0,1,3.223-6.75l4.394-3.77Z" transform="translate(-427.844 -2811.97)"/>
</svg>
