<?xml version="1.0" encoding="utf-8"?>
<!-- Generator: Adobe Illustrator 23.0.3, SVG Export Plug-In . SVG Version: 6.00 Build 0)  -->
<svg version="1.1" id="Layer_1" xmlns="http://www.w3.org/2000/svg" xmlns:xlink="http://www.w3.org/1999/xlink" x="0px" y="0px"
	 viewBox="0 0 40 40" style="enable-background:new 0 0 40 40;" xml:space="preserve">
<style type="text/css">
	.st0{fill:#DD0031;}
	.st1{fill:#C3002F;}
	.st2{fill:#FFFFFF;}
</style>
<g>
	<polygon class="st0" points="1.4,6.8 4.3,31.4 20,40.2 20,40.2 20,40.2 35.8,31.4 38.7,6.8 20,0.2 20,0.2 20,0.2 	"/>
	<polygon class="st1" points="1.4,6.8 4.3,31.4 20,40.2 20,40.2 20,24.9 20,24.9 20,4.6 20,4.6 20,0.2 	"/>
	<path class="st2" d="M20,4.6L20,4.6L20,4.6L20,4.6L8.4,30.7l0,0h4.3l0,0l2.3-5.8H25l2.3,5.8l0,0h4.3l0,0L20,4.6L20,4.6z M20,13.1
		l3.4,8.2h-6.8L20,13.1z"/>
</g>
</svg>
