<svg id="Calque_1" data-name="Calque 1" xmlns="http://www.w3.org/2000/svg" viewBox="0 0 26.64 26.64"><defs><style>.cls-1{fill:#573776;}.cls-2{fill:#fff;}</style></defs><title>Plan de travail 1</title><path class="cls-1" d="M3.44,26.64H23.21a3.44,3.44,0,0,0,3.43-3.43V3.44A3.44,3.44,0,0,0,23.21,0H3.44A3.44,3.44,0,0,0,0,3.44V23.21H0A3.44,3.44,0,0,0,3.44,26.64Z"/><path class="cls-2" d="M11.09,11.81V8.06h3.29a5.31,5.31,0,0,1,.91.08,2.67,2.67,0,0,1,.78.28A1.5,1.5,0,0,1,16.6,9a1.82,1.82,0,0,1,.21.92,1.7,1.7,0,0,1-.61,1.46,2.52,2.52,0,0,1-1.55.45ZM7.49,5.33V21.46H15.3a8.33,8.33,0,0,0,2.12-.27,5.67,5.67,0,0,0,1.83-.84,4.08,4.08,0,0,0,1.27-1.46A4.36,4.36,0,0,0,21,16.78a4.43,4.43,0,0,0-.74-2.58A3.88,3.88,0,0,0,18,12.69a4,4,0,0,0,1.64-1.33,3.52,3.52,0,0,0,.55-2,4.29,4.29,0,0,0-.37-1.9A3.14,3.14,0,0,0,18.81,6.2a4.7,4.7,0,0,0-1.63-.67,10.4,10.4,0,0,0-2.1-.2Zm3.6,13.25V14.11H15a3,3,0,0,1,1.87.54,2.11,2.11,0,0,1,.71,1.79,2.14,2.14,0,0,1-.22,1,1.67,1.67,0,0,1-.58.65,2.44,2.44,0,0,1-.84.35,5.47,5.47,0,0,1-1,.1Z"/></svg>