<svg id="Calque_1" data-name="Calque 1" xmlns="http://www.w3.org/2000/svg" xmlns:xlink="http://www.w3.org/1999/xlink" viewBox="0 0 35.23 35.23"><defs><style>.cls-1{fill:none;}.cls-2{fill:#285ba6;}.cls-3{fill:#449bd5;}.cls-4,.cls-9{fill:#12100b;}.cls-5{fill:#fff;}.cls-6{fill:url(#Dégradé_sans_nom_3);}.cls-7{fill:url(#Dégradé_sans_nom_3-2);}.cls-8{fill:url(#Dégradé_sans_nom_4);}.cls-9{opacity:0.05;isolation:isolate;}.cls-10{fill:url(#Dégradé_sans_nom_4-2);}</style><linearGradient id="Dégradé_sans_nom_3" x1="-1527.46" y1="-857.04" x2="-1527.46" y2="-858.18" gradientTransform="translate(7104.68 3999.17) scale(4.64)" gradientUnits="userSpaceOnUse"><stop offset="0.39" stop-color="#dadadb" stop-opacity="0"/><stop offset="1" stop-color="#dadadb"/></linearGradient><linearGradient id="Dégradé_sans_nom_3-2" x1="-1526.04" y1="-857.61" x2="-1526.04" y2="-858.79" xlink:href="#Dégradé_sans_nom_3"/><linearGradient id="Dégradé_sans_nom_4" x1="-1528.16" y1="-856.52" x2="-1525.4" y2="-856.52" gradientTransform="translate(7104.68 3999.17) scale(4.64)" gradientUnits="userSpaceOnUse"><stop offset="0" stop-color="#eeedec"/><stop offset="1" stop-color="#fff"/></linearGradient><linearGradient id="Dégradé_sans_nom_4-2" x1="-1528.28" y1="-858.52" x2="-1525.33" y2="-858.52" xlink:href="#Dégradé_sans_nom_4"/></defs><title>Plan de travail 1</title><path class="cls-1" d="M0,0H35.23V35.23H0Z"/><path class="cls-2" d="M26.54,30.65l-8.91,2.4-8.91-2.4L6.66,8.38H28.59Z"/><path class="cls-3" d="M17.71,10.09v21h0l7.21-1.94,1.66-19Z"/><path class="cls-4" d="M12.57,5V3.62h1.9V2.29H11V6.47h3.43V5Zm5.48-1.33h1.37V2.29H16V3.78c.45.46.69.69,1.36,1.36H16V6.28h3.42V5L18.05,3.62Zm4.77,0h1.36V2.29H20.76V3.78l1.36,1.36H20.76V6.28h3.42V5L22.82,3.62Z"/><path class="cls-5" d="M17.62,15.68l-6.38,2.65L11.45,21l6.17-2.63,6.56-2.81.27-2.69-6.83,2.85Z"/><path class="cls-6" d="M11.33,18.33,11.54,21l6.17-2.63V15.68Z"/><path class="cls-7" d="M24.54,12.83l-6.83,2.85v2.65l6.56-2.81Z"/><path class="cls-8" d="M11.25,18.28,11.46,21,21,21l-.22,3.6-3.2.91-3.08-.78-.19-2.24H11.52l.37,4.28,5.73,1.7,5.7-1.67.74-8.5Z"/><path class="cls-9" d="M17.71,18.28H11.24L11.46,21l6.25,0V18.28Zm0,7.11h0l-3-.75-.18-2.18H11.73l.36,4.2,5.62,1.66Z"/><path class="cls-10" d="M10.73,12.76H24.39l-.27,2.66H11.06l-.33-2.66Z"/><path class="cls-9" d="M17.71,12.76H10.82l.33,2.66h6.56V12.76Z"/></svg>