<?xml version="1.0" encoding="utf-8"?>
<!-- Generator: Adobe Illustrator 23.0.3, SVG Export Plug-In . SVG Version: 6.00 Build 0)  -->
<svg version="1.1" id="Calque_1" xmlns="http://www.w3.org/2000/svg" xmlns:xlink="http://www.w3.org/1999/xlink" x="0px" y="0px"
	 viewBox="0 0 40 40" style="enable-background:new 0 0 40 40;" xml:space="preserve">
<style type="text/css">
	.st0{fill:none;}
	.st1{fill:#285BA6;}
	.st2{fill:#449BD5;}
	.st3{fill:#12100B;}
	.st4{fill:#FFFFFF;}
	.st5{fill:url(#SVGID_1_);}
	.st6{fill:url(#SVGID_2_);}
	.st7{fill:url(#SVGID_3_);}
	.st8{opacity:5.000000e-02;fill:#12100B;enable-background:new    ;}
	.st9{fill:url(#SVGID_4_);}
</style>
<title>Plan de travail 1</title>
<path class="st0" d="M-2.8-2.8h45.6v45.6H-2.8V-2.8z"/>
<path class="st1" d="M31.5,36.9L20,40L8.5,36.9L5.7,8.1h28.5L31.5,36.9z"/>
<path class="st2" d="M20.1,10.3v27.2l0,0l9.3-2.5l2.2-24.6L20.1,10.3z"/>
<path class="st3" d="M13.5,3.7V1.9H16V0.2h-4.5v5.4h4.4V3.7H13.5z M20.5,2h1.8V0.2h-4.4v1.9c0.6,0.6,0.9,0.9,1.8,1.8h-1.8v1.4h4.4
	V3.7L20.5,2L20.5,2z M26.7,2h1.8V0.2h-4.4v1.9L26,3.9h-1.8v1.4h4.4V3.7L26.7,2L26.7,2z"/>
<path class="st4" d="M20,17.5l-8.3,3.4l0.3,3.5l8-3.4l8.6-3.6l0.4-3.5L20,17.5L20,17.5z"/>
<linearGradient id="SVGID_1_" gradientUnits="userSpaceOnUse" x1="-1808.2795" y1="-779.5267" x2="-1808.2795" y2="-781.0043" gradientTransform="matrix(4.64 0 0 4.64 8406.3984 3643.3413)">
	<stop  offset="0.39" style="stop-color:#DADADB;stop-opacity:0"/>
	<stop  offset="1" style="stop-color:#DADADB"/>
</linearGradient>
<path class="st5" d="M11.8,20.9l0.3,3.5l8-3.4v-3.5L11.8,20.9z"/>
<linearGradient id="SVGID_2_" gradientUnits="userSpaceOnUse" x1="-1806.4359" y1="-780.2654" x2="-1806.4359" y2="-781.795" gradientTransform="matrix(4.64 0 0 4.64 8406.3984 3643.3413)">
	<stop  offset="0.39" style="stop-color:#DADADB;stop-opacity:0"/>
	<stop  offset="1" style="stop-color:#DADADB"/>
</linearGradient>
<path class="st6" d="M28.9,13.8l-8.8,3.8v3.4l8.6-3.6L28.9,13.8z"/>
<linearGradient id="SVGID_3_" gradientUnits="userSpaceOnUse" x1="-1808.4183" y1="-779.2723" x2="-1804.8428" y2="-779.2723" gradientTransform="matrix(4.64 0 0 4.64 8406.3984 3643.3413)">
	<stop  offset="0" style="stop-color:#EEEDEC"/>
	<stop  offset="1" style="stop-color:#FFFFFF"/>
</linearGradient>
<path class="st7" d="M11.7,20.9l0.3,3.5h12.3l-0.1,4.7L20,30.2l-4-1l-0.3-2.9h-3.6l0.5,5.6l7.4,2.2l7.4-2.2l0.9-11H11.7z"/>
<path class="st8" d="M20.1,20.9h-8.4l0.3,3.5h8v-3.5H20.1z M20.1,30.1L20.1,30.1l-3.9-1L16,26.2h-3.6l0.5,5.4l7.3,2.2
	C20.1,33.9,20.1,30.1,20.1,30.1z"/>
<linearGradient id="SVGID_4_" gradientUnits="userSpaceOnUse" x1="-1808.5739" y1="-781.8842" x2="-1804.7468" y2="-781.8842" gradientTransform="matrix(4.64 0 0 4.64 8406.3984 3643.3413)">
	<stop  offset="0" style="stop-color:#EEEDEC"/>
	<stop  offset="1" style="stop-color:#FFFFFF"/>
</linearGradient>
<path class="st9" d="M11.1,13.6h17.8l-0.4,3.5h-17C11.4,17.1,11.1,13.6,11.1,13.6z"/>
<path class="st8" d="M20.1,13.6h-8.9l0.4,3.5h8.6V13.6z"/>
</svg>
