<svg id="Calque_1" data-name="Calque 1" xmlns="http://www.w3.org/2000/svg" viewBox="0 0 24.44 28.77"><defs><style>.cls-1{fill:#f7a900;}.cls-2{fill:#e58304;}.cls-3{fill:#fbc465;}.cls-4{fill:#fff;}.cls-5{fill:#d2d0d0;}.cls-6{fill:#4e3519;}</style></defs><title>Plan de travail 1</title><g id="Layer_1" data-name="Layer 1"><path class="cls-1" d="M4.68,5.53s.39,1.5.45,2-1,1.62-1,2.17a2.17,2.17,0,0,0,1.44,2.06A2.56,2.56,0,0,1,7,14.32a11.45,11.45,0,0,1-.44,2.28S6.24,20.33,7.74,21s1.16.67,1.5.67,2.78,1,4.22.61a3.94,3.94,0,0,0,1.84-.84,1.89,1.89,0,0,0,1.89-1.17,14.86,14.86,0,0,0,.56-5.17c-.17-1.22-.39-2.83.61-3.39s2.05-1.22,1.89-1.78a4.46,4.46,0,0,0-1.06-1.34,5.42,5.42,0,0,1-.05-1.72c.17-.33,1.17-1.17.61-1.78a2.37,2.37,0,0,0-1.56-.61l-1.27.11a7.8,7.8,0,0,0-5-1.83A7.49,7.49,0,0,0,7.3,4.58a2.89,2.89,0,0,0-1.78,0c-.84.34-1,0-.84,1Z"/><path class="cls-2" d="M9.77,13.81s-1.1,1.68-1.91,2.88c-.12.18.81.19.81.19l1.1-3.07Zm.52-3.49s-.33.83-.52,1.27-.95.71-.95.71a2.12,2.12,0,0,0,.39-1.44c0-.44.56-.61.56-.61Z"/><path class="cls-2" d="M10,10.79A1.73,1.73,0,0,1,8,11.14c-1.27-.45-1.4-2.07-1.4-2.52s2.4.45,2.73.64S10.28,10.24,10,10.79ZM5.19,2.14a2.68,2.68,0,0,1,1.94.38,3.52,3.52,0,0,1,1,1.1l-1.31,1A1.69,1.69,0,0,1,6,3.54c-.19-.85-.07-1.24-.8-1.4Z"/><path class="cls-2" d="M9.61,8.45a2.67,2.67,0,0,0-2-1.07A2.54,2.54,0,0,0,6,7.69s1.84.08,2.37.77c1,1.31,2.44,1.41,2.67,1.12a1.22,1.22,0,0,1-.87-.41A4.72,4.72,0,0,1,9.61,8.45ZM6.5,11s-2-.7-1.65-1.41.08-1.1.08-1.1-1.15.84-.86,1.75c.18.56.48,1,2.13,1.73.8,1.47.17,4.12.21,4.13s1.11-.52,1-3c0-.76-.09-1.79-1-2.11ZM9.18,3.41l-2,1,.46.23-.07.12L8,5s1.16.84,1.86,1.37A12.77,12.77,0,0,0,9,4.52a1.27,1.27,0,0,1,.23-1.11ZM12,21.17c-2.64,0-3.53-1.33-3.53-1.33l.42,1A4.59,4.59,0,0,0,12,22.63"/><path class="cls-2" d="M8.79,19S9,20.48,10,20.48s1.08-1.25,1.08-1.51ZM7.17,16.69a10.45,10.45,0,0,0,.49-2.07,22.85,22.85,0,0,0,.08-2.57s-.26,1-.49,1.16a5.26,5.26,0,0,0-.65,1.27s-.22,1.64-.33,2.19C6.56,16.72,6.81,16.55,7.17,16.69ZM4.83,10.2s.55-.2.71-1.39a5.36,5.36,0,0,0-.2-2.23,7.42,7.42,0,0,1-.16,2c-.2.33-.35.42-.59.84a.64.64,0,0,0,.24.81Z"/><path class="cls-3" d="M5.48,2.42l-.11-.07C5,2.36,5.48,2.42,5.48,2.42Z"/><path class="cls-1" d="M9.63,3.05a1.3,1.3,0,0,1-.78-.48A2.69,2.69,0,0,0,6.68,1.4a9.69,9.69,0,0,0-2.32.31l1,.64c.11,0,.29,0,.6,0a1.57,1.57,0,0,1,1.47,1.3L11.91,3"/><path class="cls-4" d="M10.06,10a1.74,1.74,0,0,1-1.53.4C7.6,10.19,7,9.78,7,9.07a1.47,1.47,0,0,1,.19-1,5.42,5.42,0,0,1,1.54.75C9.22,9.26,9.58,10,10.06,10Z"/><path class="cls-5" d="M9.33,9.77a1.7,1.7,0,0,1-1.11,0A1.23,1.23,0,0,1,7.4,8.76s-.47,1.39.85,1.65A1.94,1.94,0,0,0,9.93,10Z"/><path class="cls-6" d="M9.7,2.76A2.39,2.39,0,0,1,11,.58c0,.21,0,1,.32,1.23C11.37,1.17,11.7.46,13,0a2.19,2.19,0,0,0,.08,1.66C14,.85,14.58,1,14.58,1a2.81,2.81,0,0,0-.38,1.77c-1.79-.13-4.49.2-4.5,0ZM5.9,4.56c-.42-.35-.1-.68-.14-1.09A1.18,1.18,0,0,0,5.65,3a2.31,2.31,0,0,0-1.33-.82L3.89,2l.29-.34a3.08,3.08,0,0,1,3.05-.58A5.11,5.11,0,0,1,9.5,3l-.64.31A4,4,0,0,0,7,1.62a2.83,2.83,0,0,0-2.07.16,2.39,2.39,0,0,1,1.16.88,1.77,1.77,0,0,1,.18.76,1.2,1.2,0,0,0,.32.9l-.69.24ZM4.76,9.74a4.26,4.26,0,0,0,.7-2,4.92,4.92,0,0,0-.23-1.91A7.45,7.45,0,0,1,5,7.77,17.63,17.63,0,0,1,4.76,9.74Z"/><path class="cls-6" d="M7.6,3.89A2.34,2.34,0,0,0,7,2.75,1.7,1.7,0,0,0,5.44,2.5l-.12-.37a2.23,2.23,0,0,1,1.85.3,2.06,2.06,0,0,1,1,1.23ZM6.45,9.26a1.38,1.38,0,0,1-.23-.84.65.65,0,0,1,.32-.53c.34-.15.48.24.48.24s-.48.11-.57,1.13Z"/><path class="cls-6" d="M9.56,9.88l0,0a1.54,1.54,0,0,1-1.79,0A1.58,1.58,0,0,1,7.5,8.28a2.75,2.75,0,0,1,1,.43c-.34-.31-.64-.54-.64-.55l-.39-.1-.77-.27A2.82,2.82,0,0,0,7.2,10c.35.4,2,1.28,2.82-.23Z"/><path class="cls-6" d="M9.47,10A1,1,0,0,0,11.2,9.5a1.27,1.27,0,0,1-1.57-.39A3.87,3.87,0,0,0,5.94,7.7,7.06,7.06,0,0,1,9.47,10Z"/><path class="cls-6" d="M5.76,12.11a1.48,1.48,0,0,1,.54,1.16,25.16,25.16,0,0,1-.2,3c.25.16.42.19.66.35a30.15,30.15,0,0,0,.17-3.53,1.88,1.88,0,0,0-.85-1.52l-.37-.2C5.05,11,4.36,10.61,4.36,10a.84.84,0,0,1,.4-.8l0,0a1.39,1.39,0,0,0,.38-.44,3.53,3.53,0,0,0,0-2.32,1.79,1.79,0,0,1-.42-1.18A.52.52,0,0,1,5,4.87a1.45,1.45,0,0,1,.67-.13A5.14,5.14,0,0,1,7.17,5,11.58,11.58,0,0,1,10,6.68l0,0,.24.17-.15-.26A5.74,5.74,0,0,0,7.39,4.4a5.32,5.32,0,0,0-1.66-.31,2.1,2.1,0,0,0-1,.21,1.19,1.19,0,0,0-.62.75,2.33,2.33,0,0,0,.52,1.74,3.6,3.6,0,0,1-.07,1.67.67.67,0,0,1-.19.19l-.1.08A1.41,1.41,0,0,0,3.6,10c0,1,1,1.52,1.79,1.94l.37.21Z"/><path class="cls-6" d="M5.9,4.56c-.42-.35-.1-.68-.14-1.09A1.18,1.18,0,0,0,5.65,3a2.31,2.31,0,0,0-1.33-.82L3.89,2l.29-.34a3.08,3.08,0,0,1,3.05-.58A5.11,5.11,0,0,1,9.5,3l-.64.31A4,4,0,0,0,7,1.62a2.83,2.83,0,0,0-2.07.16,2.39,2.39,0,0,1,1.16.88,1.77,1.77,0,0,1,.18.76,1.2,1.2,0,0,0,.32.9l-.69.24Z"/><path class="cls-6" d="M5.89,4.64l0,0a.66.66,0,0,1-.2-.77,1.08,1.08,0,0,0,0-.36A1.49,1.49,0,0,0,5.61,3,2.29,2.29,0,0,0,4.32,2.2l-.55-.11.36-.42A3,3,0,0,1,6.18.9a3.69,3.69,0,0,1,1.08.17A5.33,5.33,0,0,1,9.56,3L9.6,3l-.77.36,0-.05A4,4,0,0,0,7,1.68a2.61,2.61,0,0,0-.79-.12,3.13,3.13,0,0,0-1.1.22,2.41,2.41,0,0,1,1,.86,1.78,1.78,0,0,1,.2.79,1.19,1.19,0,0,0,.29.87l.09.07-.83.27Z"/><path class="cls-6" d="M7.6,3.89A2.34,2.34,0,0,0,7,2.75,1.7,1.7,0,0,0,5.44,2.5l-.12-.37a2.23,2.23,0,0,1,1.85.3,2.06,2.06,0,0,1,1,1.23Z"/><path class="cls-6" d="M7.55,4V3.9a2.27,2.27,0,0,0-.63-1.1A1.46,1.46,0,0,0,6,2.49a1.54,1.54,0,0,0-.51.08l-.06,0-.16-.5.06,0A2.12,2.12,0,0,1,5.93,2a2.21,2.21,0,0,1,1.28.4,2.14,2.14,0,0,1,1,1.27V3.7L7.55,4ZM6,2.36A1.63,1.63,0,0,1,7,2.7a2.33,2.33,0,0,1,.66,1.1l.44-.18a2.24,2.24,0,0,0-1-1.14,2.11,2.11,0,0,0-1.21-.37,2.57,2.57,0,0,0-.53.06l.08.25A2.39,2.39,0,0,1,6,2.36ZM10,20a.76.76,0,0,1-.52-.19,2.33,2.33,0,0,1-.61-.8.31.31,0,0,1,0-.36.57.57,0,0,1,.42-.13h1.3a.59.59,0,0,1,.4.12.28.28,0,0,1,0,.3,3.63,3.63,0,0,1-.58.86A.63.63,0,0,1,10,20Zm.21-10-.7,0a3.68,3.68,0,0,1,.3.71,2.23,2.23,0,0,1-.12,1.12s.92-1,.52-1.79ZM9.3,21.82a3.73,3.73,0,0,1-3.32-3h.64a3.11,3.11,0,0,0,2.74,2.35Z"/><path class="cls-4" d="M8.61,17.72a1.53,1.53,0,0,1,0-.64,2.91,2.91,0,0,0-.77-.27c-.21-.13-1.26.14-2-.79-1-1.16-.75-1.85-.75-1.85-.24.27-.48.17-.86,1.44s.18,2.16,1.21,3.05a3.16,3.16,0,0,0,1.75.65c-.19-.19.34-.21.71-.35a1,1,0,0,1,.24-.82,1.36,1.36,0,0,1,.49-.29s0-.05,0-.07a.14.14,0,0,1,0-.06Z"/><path class="cls-5" d="M7.87,19l-.06-.19c0-.07-.1-.27,0,0a.41.41,0,0,1,0-.18c-1.67,0-3.11-1.14-2.83-3.54-.22-.29-.53.58-.53.58S3.57,18,5.72,18.93a3.23,3.23,0,0,0,1.5.45.76.76,0,0,0,.7-.3.5.5,0,0,1,0-.13Z"/><path class="cls-6" d="M8.58,17.37a1.25,1.25,0,0,1,.14-.59l0,0a5.74,5.74,0,0,1-2-.32A3.15,3.15,0,0,1,5,14.09a3.23,3.23,0,0,0-.91,3.14c.36,2,2,2.67,4,2.78a1.47,1.47,0,0,1-.15-.73A3.12,3.12,0,0,1,5,18a3.31,3.31,0,0,1-.17-2.62c.55,1.7,2.49,2,3.71,2Z"/><path class="cls-6" d="M8.78,16.15a6.21,6.21,0,0,1-1,1.83s1,0,1-.21A19.74,19.74,0,0,0,10,13.38c-.31.51-1.15,2.68-1.18,2.77Z"/><path class="cls-2" d="M14.29,13.81s1.1,1.68,1.9,2.88c.13.18-.8.19-.8.19l-1.1-3.07Zm-.53-3.49.52,1.27c.2.48,1,.71,1,.71a2.12,2.12,0,0,1-.39-1.44c0-.44-.56-.61-.56-.61Z"/><path class="cls-2" d="M14.1,10.79a1.72,1.72,0,0,0,1.94.35c1.26-.45,1.39-2.07,1.39-2.52s-2.4.45-2.72.64S13.77,10.24,14.1,10.79Zm4.77-8.65a2.68,2.68,0,0,0-1.94.38,3.67,3.67,0,0,0-1,1.1l1.31,1a1.69,1.69,0,0,0,.83-1.13c.19-.84.06-1.23.81-1.39Z"/><path class="cls-2" d="M14.44,8.45a2.67,2.67,0,0,1,2-1.07,2.59,2.59,0,0,1,1.67.31s-1.85.08-2.38.77c-1,1.31-2.44,1.41-2.67,1.12a1.22,1.22,0,0,0,.88-.41,4.72,4.72,0,0,0,.52-.72ZM17.55,11s2.05-.7,1.66-1.41-.09-1.1-.09-1.1,1.14.85.85,1.75c-.17.56-.48,1-2.13,1.73-.79,1.47-.16,4.12-.2,4.13s-1.11-.52-1-3C16.63,12.32,16.7,11.29,17.55,11ZM14.87,3.41l2,1-.47.23.07.12L16,5,14.16,6.39a12.77,12.77,0,0,1,.93-1.87,1.24,1.24,0,0,0-.22-1.11ZM12,21.17c2.64,0,3.53-1.33,3.53-1.33l-.42,1A4.56,4.56,0,0,1,12,22.63"/><path class="cls-2" d="M15.26,19S15,20.48,14,20.48,13,19.23,13,19Zm1.62-2.31a10.45,10.45,0,0,1-.49-2.07,21.84,21.84,0,0,1-.07-2.57s.25,1,.48,1.16a5.26,5.26,0,0,1,.65,1.27s.22,1.64.33,2.19c-.29,0-.54-.12-.9,0Zm2.35-6.49s-.55-.2-.72-1.39a5.36,5.36,0,0,1,.2-2.23,7.87,7.87,0,0,0,.16,2c.2.33.36.42.59.84a.65.65,0,0,1-.23.81Z"/><path class="cls-3" d="M18.57,2.42l.11-.07C19,2.36,18.57,2.42,18.57,2.42Z"/><path class="cls-1" d="M14.42,3.05a1.3,1.3,0,0,0,.78-.48A2.69,2.69,0,0,1,17.37,1.4a9.69,9.69,0,0,1,2.32.31l-1,.64c-.11,0-.29,0-.6,0a1.57,1.57,0,0,0-1.47,1.3L12.14,3"/><path class="cls-4" d="M14,10a1.74,1.74,0,0,0,1.53.4c.93-.19,1.49-.6,1.53-1.31a1.4,1.4,0,0,0-.19-1,5.42,5.42,0,0,0-1.54.75C14.83,9.26,14.46,10,14,10Z"/><path class="cls-5" d="M14.72,9.77a1.7,1.7,0,0,0,1.11,0,1.23,1.23,0,0,0,.82-1.05s.47,1.39-.84,1.65a2,2,0,0,1-1.69-.4Z"/><path class="cls-6" d="M18.15,4.56c.42-.35.11-.68.14-1.09A1.18,1.18,0,0,1,18.4,3a2.31,2.31,0,0,1,1.33-.82L20.16,2l-.29-.34a3.08,3.08,0,0,0-3.05-.58A5.11,5.11,0,0,0,14.55,3l.65.31a4,4,0,0,1,1.85-1.68,2.83,2.83,0,0,1,2.07.16A2.44,2.44,0,0,0,18,2.66a1.77,1.77,0,0,0-.18.76,1.2,1.2,0,0,1-.32.9Zm1.14,5.18a4.13,4.13,0,0,1-.7-2,5.13,5.13,0,0,1,.22-1.91A8,8,0,0,0,19,7.77,17.9,17.9,0,0,0,19.29,9.74Z"/><path class="cls-6" d="M16.45,3.89a2.34,2.34,0,0,1,.65-1.14,1.7,1.7,0,0,1,1.51-.25l.12-.37a2.23,2.23,0,0,0-1.85.3,2.06,2.06,0,0,0-1,1.23l.56.23ZM17.6,9.26a1.38,1.38,0,0,0,.23-.84.66.66,0,0,0-.31-.53c-.34-.15-.49.24-.49.24S17.51,8.24,17.6,9.26Z"/><path class="cls-6" d="M14.5,9.88a.06.06,0,0,0,0,0,1.52,1.52,0,0,0,1.78,0,1.58,1.58,0,0,0,.29-1.63,2.83,2.83,0,0,0-1,.43c.34-.31.64-.54.64-.55l.4-.1.76-.27A2.82,2.82,0,0,1,16.85,10c-.35.4-2,1.28-2.82-.23Z"/><path class="cls-6" d="M14.58,10a1,1,0,0,1-1.73-.48,1.27,1.27,0,0,0,1.57-.39A3.89,3.89,0,0,1,18.11,7.7,7.06,7.06,0,0,0,14.58,10Z"/><path class="cls-6" d="M18.29,12.11a1.48,1.48,0,0,0-.54,1.16,24.65,24.65,0,0,0,.19,3c-.24.16-.41.19-.65.35a28.1,28.1,0,0,1-.17-3.53A1.88,1.88,0,0,1,18,11.54l.38-.2C19,11,19.68,10.61,19.68,10a.85.85,0,0,0-.39-.8l0,0a1.18,1.18,0,0,1-.38-.44,3.41,3.41,0,0,1,0-2.32,1.74,1.74,0,0,0,.41-1.18.5.5,0,0,0-.3-.35,1.43,1.43,0,0,0-.67-.13A5.21,5.21,0,0,0,16.87,5,11.87,11.87,0,0,0,14,6.68l0,0-.24.17.16-.26A5.62,5.62,0,0,1,16.66,4.4a5.38,5.38,0,0,1,1.66-.31,2.1,2.1,0,0,1,1,.21,1.16,1.16,0,0,1,.62.75,2.29,2.29,0,0,1-.52,1.74,3.6,3.6,0,0,0,.07,1.67.84.84,0,0,0,.19.19l.1.08A1.41,1.41,0,0,1,20.45,10c0,1-1,1.52-1.79,1.94l-.37.21Z"/><path class="cls-6" d="M17.1,4.45A3.29,3.29,0,0,0,15.61,3.2,8.08,8.08,0,0,0,12,2.44a8.12,8.12,0,0,0-3.59.76A3.35,3.35,0,0,0,7,4.45l-.07.08.8.18,0,0v0c0-.06.13-.34,1-.77a7.41,7.41,0,0,1,3.3-.7,7.38,7.38,0,0,1,3.3.7c.89.43,1,.71,1,.77l0,0,0,0,.8-.18-.08-.08Z"/><path class="cls-6" d="M18.15,4.56c.42-.35.11-.68.14-1.09A1.18,1.18,0,0,1,18.4,3a2.31,2.31,0,0,1,1.33-.82L20.16,2l-.29-.34a3.08,3.08,0,0,0-3.05-.58A5.11,5.11,0,0,0,14.55,3l.65.31a4,4,0,0,1,1.85-1.68,2.83,2.83,0,0,1,2.07.16A2.44,2.44,0,0,0,18,2.66a1.77,1.77,0,0,0-.18.76,1.2,1.2,0,0,1-.32.9Z"/><path class="cls-6" d="M17.33,4.36l.08-.08a1.16,1.16,0,0,0,.3-.86,1.66,1.66,0,0,1,.2-.79A2.41,2.41,0,0,1,19,1.77a2.87,2.87,0,0,0-1.1-.22,2.54,2.54,0,0,0-.78.12,4,4,0,0,0-1.83,1.66l0,0L14.46,3l0-.06a5.19,5.19,0,0,1,2.3-1.9A3.4,3.4,0,0,1,17.88.89a3,3,0,0,1,2.05.77l.36.42-.54.11A2.23,2.23,0,0,0,18.46,3a1.41,1.41,0,0,0-.1.5,1,1,0,0,0,.05.36.69.69,0,0,1-.21.78l0,0-.84-.27Z"/><path class="cls-6" d="M16.45,3.89a2.34,2.34,0,0,1,.65-1.14,1.7,1.7,0,0,1,1.51-.25l.12-.37a2.23,2.23,0,0,0-1.85.3,2.06,2.06,0,0,0-1,1.23l.56.23Z"/><path class="cls-6" d="M15.82,3.71v0c0-.06.12-.65,1-1.28A2.17,2.17,0,0,1,18.11,2a1.7,1.7,0,0,1,.63.09l.07,0-.17.49-.06,0a2.16,2.16,0,0,0-.51-.07,1.49,1.49,0,0,0-.93.31,2.23,2.23,0,0,0-.63,1.1l0,.07-.67-.27Zm2.75-1.29.08-.24a2.2,2.2,0,0,0-1.73.31,2.2,2.2,0,0,0-1,1.14l.44.18a2.24,2.24,0,0,1,.66-1.1,1.57,1.57,0,0,1,1-.34,1.84,1.84,0,0,1,.48,0Zm-5,17.52a2.92,2.92,0,0,1-.57-.87.25.25,0,0,1,0-.29.52.52,0,0,1,.39-.12h1.3a.55.55,0,0,1,.42.13.31.31,0,0,1,.05.35,2.27,2.27,0,0,1-.62.81.79.79,0,0,1-.52.19.77.77,0,0,1-.49-.2Zm.3-9.92.69,0a3.34,3.34,0,0,0-.29.71,2.27,2.27,0,0,0,.11,1.12s-.91-1-.51-1.79Z"/><path class="cls-2" d="M12,7.55a2.48,2.48,0,0,1-1.45-.32s.57,1,1.45,1v0c.88,0,1.44-1,1.44-1A2.44,2.44,0,0,1,12,7.55Z"/><path class="cls-6" d="M13.24,7.55A2.32,2.32,0,0,1,12,7.91a2.35,2.35,0,0,1-1.22-.36s.65.78,1.21.79,1.22-.79,1.22-.79ZM14.75,22l-.05-.63A3.11,3.11,0,0,0,17.43,19h.64a3.72,3.72,0,0,1-3.32,3Z"/><path class="cls-4" d="M15.44,17.72a1.53,1.53,0,0,0,0-.64,3,3,0,0,1,.78-.27c.2-.13,1.26.14,2-.79,1-1.16.75-1.85.75-1.85.25.27.48.17.86,1.44s-.18,2.16-1.2,3.05a3.22,3.22,0,0,1-1.76.65c.2-.19-.34-.21-.71-.35a1,1,0,0,0-.24-.82,1.4,1.4,0,0,0-.48-.29l0-.07s0,0,0-.06Z"/><path class="cls-5" d="M16.18,19a1.33,1.33,0,0,0,.05-.19c0-.07.11-.27,0,0a.64.64,0,0,0,.06-.18c1.66,0,3.11-1.14,2.83-3.54.22-.29.52.58.52.58s.84,2.42-1.32,3.35a3.23,3.23,0,0,1-1.5.45.73.73,0,0,1-.69-.3.5.5,0,0,0,.05-.13Z"/><path class="cls-6" d="M15.47,17.37a1.15,1.15,0,0,0-.15-.59l0,0a5.83,5.83,0,0,0,2-.32A3.11,3.11,0,0,0,19,14.09a3.22,3.22,0,0,1,.92,3.14c-.36,2-2,2.67-4,2.78a1.5,1.5,0,0,0,.14-.73A3.11,3.11,0,0,0,19,18a3.22,3.22,0,0,0,.17-2.62c-.53,1.7-2.48,2-3.7,2Z"/><path class="cls-6" d="M16.25,17.8a2,2,0,0,0-1.62-.54H9.44a2,2,0,0,0-1.62.54,1.39,1.39,0,0,0-.16,1.5C8.28,21,9.14,22.66,12,22.67S15.79,21,16.4,19.3A1.4,1.4,0,0,0,16.25,17.8Zm-.46,1.43A3.78,3.78,0,0,1,12,22.1a3.79,3.79,0,0,1-3.77-2.87c-.16-.47-.15-.81,0-1s.42-.32,1.09-.32h5.27a1.42,1.42,0,0,1,1.09.32A1,1,0,0,1,15.79,19.23Z"/><path class="cls-6" d="M15.27,16.15A6.46,6.46,0,0,0,16.32,18s-1,0-1-.21a20,20,0,0,1-1.2-4.39c.3.51,1.14,2.68,1.17,2.77Z"/><path class="cls-6" d="M4.33,24.22a2.55,2.55,0,0,0-.44-.2,3.57,3.57,0,0,0-.52-.14,3.86,3.86,0,0,0-.61-.05A3.35,3.35,0,0,0,1.63,24a2.8,2.8,0,0,0-.88.5A2.38,2.38,0,0,0,0,26.27a2.37,2.37,0,0,0,.2,1A2.28,2.28,0,0,0,.76,28a2.6,2.6,0,0,0,.85.51,2.8,2.8,0,0,0,1.05.19,5.41,5.41,0,0,0,.59,0,4,4,0,0,0,.52-.09,3.53,3.53,0,0,0,.46-.15,3.5,3.5,0,0,0,.42-.24.08.08,0,0,0,0-.06V26.21a.09.09,0,0,0-.09-.09H2.91a.09.09,0,0,0-.09.09V27a.09.09,0,0,0,.09.09h.54v.55l-.29.07a1.73,1.73,0,0,1-.41,0,1.64,1.64,0,0,1-.56-.1,1.23,1.23,0,0,1-.43-.28,1.29,1.29,0,0,1-.29-.45,1.65,1.65,0,0,1-.1-.62,1.48,1.48,0,0,1,.1-.57,1.24,1.24,0,0,1,.26-.43A1.11,1.11,0,0,1,2.15,25a1.4,1.4,0,0,1,.56-.1H3l.26.05a.78.78,0,0,1,.24.09c.08,0,.46.24.54.29s.1,0,.14,0l.51-.72a.09.09,0,0,0,0-.12,4,4,0,0,0-.37-.25ZM8.63,27a1,1,0,0,0-.19-.21l-.08-.06.28-.16A2,2,0,0,0,9,26.27a1.71,1.71,0,0,0,.21-.4,1.77,1.77,0,0,0,.07-.46,1.62,1.62,0,0,0-.12-.58,1.22,1.22,0,0,0-.38-.47,1.78,1.78,0,0,0-.65-.3A3.68,3.68,0,0,0,7.16,24H5.56a.09.09,0,0,0-.09.09v4.64a.09.09,0,0,0,.09.09H6.62a.09.09,0,0,0,.09-.09V27.06h.21a.47.47,0,0,1,.16,0s.07.05.09.1L8,28.52a.53.53,0,0,0,.49.25H9.62a.09.09,0,0,0,.08-.09.08.08,0,0,0,0-.06ZM8,25.73a.41.41,0,0,1-.14.2.7.7,0,0,1-.24.15,1.48,1.48,0,0,1-.38,0H6.87V24.88h.39a1,1,0,0,1,.62.16.5.5,0,0,1,.18.42A.77.77,0,0,1,8,25.73Zm6.33-1.94H13.21s-.09.2-.12.25v2.73a.75.75,0,0,1,0,.4.87.87,0,0,1-.17.3.8.8,0,0,1-.27.18,1.1,1.1,0,0,1-.76,0,.71.71,0,0,1-.27-.18,1,1,0,0,1-.17-.3.91.91,0,0,1,0-.41V24c0-.05-.11-.08-.11-.08H10.13s-.09,0,0,.08v2.73a1.24,1.24,0,0,0,.06.81,1.88,1.88,0,0,0,.44.63,2,2,0,0,0,.7.42,2.84,2.84,0,0,0,.91.15,2.67,2.67,0,0,0,.91-.15,2,2,0,0,0,.69-.42,1.75,1.75,0,0,0,.44-.63,3.93,3.93,0,0,0,.21-.82V24c-.06,0-.1-.07-.14-.07Zm5.34.16H18.62a.09.09,0,0,0-.09.09v2.45a1.77,1.77,0,0,0,0,.23l-2.15-2.58L16.3,24,16.19,24a.35.35,0,0,0-.11,0h-.73a.09.09,0,0,0-.09.09v4.64a.09.09,0,0,0,.09.09h1.07a.09.09,0,0,0,.09-.09V26.19a1.41,1.41,0,0,0,0-.2l2.13,2.57a.73.73,0,0,0,.21.16.67.67,0,0,0,.26.05h.59a.09.09,0,0,0,.08-.09V24a.09.09,0,0,0-.08-.09Zm4.65,0H20.48a.09.09,0,0,0-.08.09V25a.09.09,0,0,0,.08.09h1.31v3.64a.09.09,0,0,0,.09.09H23a.09.09,0,0,0,.09-.09V25h1.31a.09.09,0,0,0,.09-.09V24c0-.05-.06-.09-.1-.09Z"/></g></svg>