<?xml version="1.0" encoding="utf-8"?>
<!-- Generator: Adobe Illustrator 23.0.3, SVG Export Plug-In . SVG Version: 6.00 Build 0)  -->
<svg version="1.1" id="Calque_1" xmlns="http://www.w3.org/2000/svg" xmlns:xlink="http://www.w3.org/1999/xlink" x="0px" y="0px"
	 viewBox="0 0 40 40" style="enable-background:new 0 0 40 40;" xml:space="preserve">
<style type="text/css">
	.st0{fill:#DE4114;}
	.st1{fill:#E95C1B;}
	.st2{fill:#F0F0F1;}
	.st3{fill:#12100B;}
	.st4{fill:#FFFFFF;}
</style>
<title>Plan de travail 1</title>
<path class="st0" d="M34.9,7.9l-2.7,28.8l-12,3.2L8.3,36.7L5.6,7.9H34.9z"/>
<path class="st1" d="M20.2,37.4l9.7-2.5l2.3-24.6H20.2V37.4z"/>
<path class="st2" d="M14.9,17.4h5.2v-3.4h-9.2l0.1,1l0.9,9.8h8.2V21h-4.9L14.9,17.4z M15.8,26.4h-3.7l0.5,5.6l7.5,2l0,0v-3.7l0,0
	l-4.1-1.1L15.8,26.4z"/>
<path class="st3" d="M8.4,0.1h1.8v1.7h1.8V0.1h1.8v5.4h-1.8V3.8h-1.8v1.7H8.4V0.1z M16.1,1.9h-1.6V0.1h5.1v1.7h-1.7v3.7h-1.8V1.9z
	 M20.6,0.1h1.9L23.7,2l1.2-1.9h1.9v5.4h-1.8V2.8l-1.4,2l0,0l-1.3-2v2.7h-1.8L20.6,0.1z M27.7,0.1h1.8v3.7h2.7v1.7h-4.5V0.1z"/>
<path class="st4" d="M20.2,24.4h4.4l-0.4,4.5l-4,1v3.6l7.3-1.9V31l0.8-9.1l0.1-0.9h-8.2V24.4z M20.2,17.3h8.6v-0.8l0.2-1.7l0.1-0.9
	h-8.9L20.2,17.3L20.2,17.3z"/>
</svg>
