<svg id="Calque_1" data-name="Calque 1" xmlns="http://www.w3.org/2000/svg" viewBox="0 0 22.93 31.18"><defs><style>.cls-1{fill:#de4114;}.cls-2{fill:#e95c1b;}.cls-3{fill:#f0f0f1;}.cls-4{fill:#12100b;}.cls-5{fill:#fff;}</style></defs><title>Plan de travail 1</title><path class="cls-1" d="M22.93,6.08,20.84,28.67l-9.39,2.51L2.09,28.67,0,6.08Z"/><path class="cls-2" d="M11.4,29.27l7.59-2,1.79-19.3H11.4Z"/><path class="cls-3" d="M7.29,13.51H11.4v-2.7H4.15l.07.75.71,7.69H11.4V16.38H7.56ZM8,20.6H5.11L5.51,25l5.88,1.58h0V23.64h0l-3.2-.84L8,20.6Z"/><path class="cls-4" d="M2.13,0h1.4V1.35h1.4V0h1.4V4.22H4.93V2.87H3.53V4.22H2.13V0ZM8.25,1.35H7V0h4V1.35H9.65V4.22H8.25V1.35ZM11.75,0h1.52l.93,1.48L15.13,0h1.52V4.22h-1.4V2.12l-1.11,1.6h0l-1-1.6v2.1h-1.4Zm5.6,0h1.4V2.87h2.1V4.22h-3.5V0Z"/><path class="cls-5" d="M11.4,19.08h3.45l-.32,3.51-3.13.81v2.81l5.74-1.53,0-.46.66-7.11.07-.73H11.4v2.7Zm0-5.58h6.77l0-.61.13-1.37.07-.72h-7V13.5Z"/></svg>