<svg id="Calque_1" data-name="Calque 1" xmlns="http://www.w3.org/2000/svg" viewBox="0 0 22.37 31.61"><defs><style>.cls-1{fill:#e7a40b;}.cls-2{fill:#f1c000;}.cls-3{fill:#fff;}.cls-4{fill:#f0f0f1;}.cls-5{fill:#2b2422;}</style></defs><title>Plan de travail 1</title><path class="cls-1" d="M22.37,6.29H0L2.1,29l9.09,2.58L20.27,29Z"/><path class="cls-2" d="M11.1,8.15V29.7l7.37-2.09L20.26,8.15Z"/><path class="cls-3" d="M17.05,10.87H5.72l-.79,8.55,0-.06h9.62l-.32,3.92-3.06.95-3.12-1-.18-2.37H5l.41,4.41L11.18,27,17,25.3l.8-8.65H7.49l.14-2.89h7.08l.1,1.53h2.85Z"/><path class="cls-4" d="M11.27,10.87H5.79L5,19.42l0-.06h6.26V16.65H7.93l.13-2.89h3.21ZM7.81,20.72H5l.41,4.36L11.1,26.7V23.8L8,22.9Z"/><path class="cls-5" d="M9.06,2.89H7V4.25h3.4V0H9.06ZM15.35.17H12V1.53c.45.46.69.68,1.36,1.36H12V4.25h3.4V3.09L14,1.7h1.36Z"/></svg>