<svg id="Calque_1" data-name="Calque 1" xmlns="http://www.w3.org/2000/svg" viewBox="0 0 49.63 11.29"><defs><style>.cls-1{fill:#24201c;}.cls-1,.cls-2{fill-rule:evenodd;}.cls-2{fill:#235897;}</style></defs><title>Plan de travail 1</title><path class="cls-1" d="M47.56.79h2.07L45.42,6.5a2.56,2.56,0,0,0-.34.48,10.13,10.13,0,0,0-.4,1.49h-1.9a8,8,0,0,0,.28-1.62,6.14,6.14,0,0,0-.4-1.48c-.14-.5-.34-1.48-.34-1.48h2L44.55,5l3-4.13"/><path class="cls-1" d="M43.59,1.9c.39.23.62,1.51.62,1.51l-3.11.06h-.94L39,8.47H37.25S38.35,3,38.6,2c.09-.32.58-.26,1.41-.26h1.31a6.17,6.17,0,0,1,2.27.14M35.41,4.4a1,1,0,0,0-.18-.69c-.21-.32-.4-.39-.94-.41-1.53,0-1.5,1.09-1.5,1.09Zm1.67-1.32a8.31,8.31,0,0,1-.21,2.7s-2.22,0-3.44,0c-.38,0-.84,0-1,.14s.06.63.24.79a1.6,1.6,0,0,0,.77.22,24.61,24.61,0,0,0,3.07,0L36.2,8.55a21.46,21.46,0,0,1-4.4-.2,1.57,1.57,0,0,1-.74-.4c0-.06-.09-.13-.14-.2a1.6,1.6,0,0,1-.2-.34,6.17,6.17,0,0,1,.41-3.52,3.35,3.35,0,0,1,.15-.35,2.86,2.86,0,0,1,.19-.39A.88.88,0,0,1,31.59,3l.15-.19a2.71,2.71,0,0,1,.47-.41,4.48,4.48,0,0,1,3-.67,2.32,2.32,0,0,1,1.62.74,2.42,2.42,0,0,1,.21.61ZM29,1.77h1.68s-.95,4.51-1.43,6.71h-2c-1.37,0-2.59.17-3.11-.81s0-2.53.2-3.6c.16-.75.5-2.29.5-2.29l1.76,0s-.49,2.4-.7,3.59c-.08.43-.23.83-.07,1.15s.36.32,1,.34h.88L29,1.76M21,5a6.5,6.5,0,0,0,.41-1.89,1.64,1.64,0,0,0-.88-1.28,2.26,2.26,0,0,0-2.3.54,3.73,3.73,0,0,0-.81,2,3,3,0,0,0,0,1.76c.41.85,1.68.66,3,.67.21-.54.37-1.15.54-1.76Zm2.37-2.5c.19,1.42-.55,3-1.07,4.34.53,0,1,0,1,0a5.57,5.57,0,0,1-.49,1.63l-2.37,0c-1.87,0-3.63.12-4.52-.81a2.89,2.89,0,0,1-.68-1.49,6.53,6.53,0,0,1,.2-2.3,7,7,0,0,1,.68-1.75A4.25,4.25,0,0,1,20.63,0a4.41,4.41,0,0,1,1.49.48l.14.1A3,3,0,0,1,23.4,2.53Zm-8.29-.75c-.11.52-.23,1.11-.35,1.63H12.84c.15-.57.26-1.14.41-1.64h1.89M12.77,3.9h1.84c-.23,1.32-.71,3.45-1.08,4.93a3.37,3.37,0,0,1-1,2.1c-.06,0-.09,0-.14.06a2.5,2.5,0,0,1-.94.28,14.72,14.72,0,0,1-1.62,0c.16-.57.33-1.24.47-1.75,1.44.17,1.48-1.19,1.76-2.5.16-.76.65-2.81.74-3.11"/><path class="cls-2" d="M8.53,7.33l0,.1A3.8,3.8,0,0,1,5,9.56a4.86,4.86,0,0,1-2-.4A5.3,5.3,0,0,1,.5,6.86a3.83,3.83,0,0,1,.63-4.63s-.18.3-.15.3l0,.13c-1,3.27,2.17,6.07,5.3,5.75A4.07,4.07,0,0,0,8.53,7.33"/><path class="cls-2" d="M6.64,6a3,3,0,0,0,2.1-.88A2.93,2.93,0,0,1,5.42,6.66a3.56,3.56,0,0,1-2.83-3,3,3,0,0,1,.83-2.35,2.46,2.46,0,0,0-.29.87A3.56,3.56,0,0,0,6.64,6"/><path class="cls-2" d="M8.66,3.25a2.55,2.55,0,0,1-1.14.88,2.16,2.16,0,0,1-2.43-1,2.35,2.35,0,0,1-.2-.44A1.84,1.84,0,0,1,5.28.91a2.33,2.33,0,0,0-.09,1.18,2.65,2.65,0,0,0,.33.71,1.92,1.92,0,0,0,.74.66,2,2,0,0,0,.38.18,2.08,2.08,0,0,0,2-.39"/></svg>