<svg id="Calque_1" data-name="Calque 1" xmlns="http://www.w3.org/2000/svg" viewBox="0 0 27.99 27.99"><defs><style>.cls-1{fill:#fff;}.cls-1,.cls-2,.cls-3{fill-rule:evenodd;}.cls-2{fill:#00628a;}.cls-3{fill:#d18b14;}</style></defs><title>Plan de travail 1</title><path class="cls-1" d="M0,0H28V28H0Z"/><path class="cls-2" d="M1.24,18.66h.94V15.33l1.32,2.9a.72.72,0,0,0,.78.48.72.72,0,0,0,.78-.48l1.32-2.9v3.33h.77V15.33a.52.52,0,0,0-.4-.57c-.65-.19-1.08,0-1.27.41l-1.3,2.88L2.92,15.17c-.19-.43-.62-.6-1.28-.41a.52.52,0,0,0-.4.57v3.33ZM7.92,16h.79v1.83c0,.1,0,.34.49.34H11V16h.78v3c0,.74-.84.9-1.23.9H7.93v-.62h2.6c.54-.05.51-.41.51-.41v-.21H9.28c-.83,0-1.35-.37-1.36-.78,0,0,0-1.85,0-1.86ZM26,13.84a2.86,2.86,0,0,0-1.21.18c-.09,0-.24,0-.26.16s.06.14.1.21a1.55,1.55,0,0,0,.33.39l.39.3c.25.15.52.24.76.4l.41.3c.07.05.11.13.2.17v0a1.36,1.36,0,0,1-.1-.21,1.7,1.7,0,0,1-.19-.19,2.86,2.86,0,0,0-.65-.65c-.2-.14-.63-.33-.71-.57h0a3.2,3.2,0,0,0,.42-.1c.22-.06.41,0,.63-.11l.3-.09v0c-.12-.12-.21-.27-.33-.38a8.28,8.28,0,0,0-1.07-.8,7.13,7.13,0,0,0-.68-.33c-.08,0-.21-.06-.25-.12a2.42,2.42,0,0,1-.27-.5c-.19-.36-.37-.76-.53-1.14s-.19-.5-.33-.74a6.61,6.61,0,0,0-2.52-2.43,3,3,0,0,0-.84-.27l-.48,0a2.37,2.37,0,0,1-.3-.23c-.37-.23-1.33-.74-1.6-.07-.18.42.26.84.41,1.05a3.23,3.23,0,0,1,.33.49c0,.11.06.23.1.34a8.44,8.44,0,0,0,.34.88,3.26,3.26,0,0,0,.24.4c.05.07.15.1.16.22a1.86,1.86,0,0,0-.14.49A2.84,2.84,0,0,0,18.86,13c.11.17.35.52.69.39s.22-.49.31-.81a.9.9,0,0,1,0-.19h0l.27.53a3.58,3.58,0,0,0,.82.87c.16.12.28.32.47.39v0h.24c0-.06-.1-.08-.15-.13a3.79,3.79,0,0,1-.32-.38,8.54,8.54,0,0,1-.7-1.18,6.57,6.57,0,0,1-.26-.61c0-.08,0-.2-.1-.23a2.2,2.2,0,0,0-.3.43,4,4,0,0,0-.18,1s0,0,0,0c-.2,0-.27-.27-.34-.45a2.83,2.83,0,0,1-.06-1.71c0-.14.23-.56.16-.69s-.17-.2-.23-.29A2.38,2.38,0,0,1,19,9.49c-.15-.36-.22-.76-.38-1.12a4.19,4.19,0,0,0-.31-.5,3.7,3.7,0,0,1-.35-.5.32.32,0,0,1,0-.27A.1.1,0,0,1,18,7c.08-.07.31,0,.39.06A3.51,3.51,0,0,1,19,7.4c.09.07.18.19.3.22h.13a6,6,0,0,1,.61.07,4.1,4.1,0,0,1,.89.44,5.62,5.62,0,0,1,1.94,2.21c.08.14.11.28.18.43.13.32.29.64.42,1a4.1,4.1,0,0,0,.44.86c.09.14.47.21.63.28A4.27,4.27,0,0,1,25,13a7.07,7.07,0,0,1,.63.44c.1.07.41.23.43.36Z"/><path class="cls-2" d="M19.39,8.2a.93.93,0,0,0-.26,0h0a1.39,1.39,0,0,0,.21.27c0,.1.09.2.15.31v0a.35.35,0,0,0,.13-.32s0-.09-.07-.13-.13-.1-.18-.15Z"/><path class="cls-3" d="M12.44,18.66H15a2,2,0,0,0,.79-.16c.38-.16.56-.39.56-.68v-.61c0-.23-.21-.45-.62-.61a2.37,2.37,0,0,0-.73-.12h-1c-.35,0-.51-.1-.56-.32a.22.22,0,0,1,0-.08v-.49c.05-.17.14-.22.44-.2h2.52v-.62H13.88a2.32,2.32,0,0,0-.7.07c-.51.16-.74.4-.74.83v.49c0,.38.44.71,1.18.78h1.24c.27,0,.39.07.47.16a.2.2,0,0,1,.06.16v.51a.38.38,0,0,1-.1.2.57.57,0,0,1-.36.11s0,0-.08-.06H12.44v.63Zm9.18-1c0,.57.39.89,1.19,1h2.54V18H23.06a.63.63,0,0,1-.67-.35V14.77h-.78v2.92Zm-4.83-.08v-1.9c0-.52.37-.83,1.07-.92l.23,0h1.6l.24,0c.71.09,1.06.4,1.06.92v1.9a.8.8,0,0,1-.5.85l.83.82h-1l-.68-.66-.68,0h-.9a1.76,1.76,0,0,1-.49-.07,1,1,0,0,1-.81-1Zm.94.13a.29.29,0,0,0,0,.09c0,.23.26.36.6.36h.77l-.68-.62h1l.6.55a.43.43,0,0,0,.21-.27.22.22,0,0,0,0-.08V15.82a.22.22,0,0,0,0-.08c-.05-.22-.27-.35-.59-.35H18.35c-.38,0-.62.17-.62.43v1.92Zm7.93.92h.15v-.47H26V18H25.5v.15h.16v.47Zm.93,0h.16V18h-.17l-.14.42L26.29,18h-.17v.62h0v-.47h.08l.16.47h.09l.14-.41v.43h0Z"/></svg>