<svg id="Calque_1" data-name="Calque 1" xmlns="http://www.w3.org/2000/svg" xmlns:xlink="http://www.w3.org/1999/xlink" viewBox="0 0 43.49 26.7"><defs><style>.cls-1{fill:#fff;}.cls-2{fill:#509934;}.cls-3{fill:#3b3735;}.cls-4{fill:url(#Dégradé_sans_nom_7);}.cls-5{mask:url(#mask);}.cls-6{fill:none;}.cls-7{fill:url(#Dégradé_sans_nom_5);}.cls-8{mask:url(#mask-2);}.cls-10,.cls-11,.cls-12,.cls-13,.cls-9{fill-rule:evenodd;}.cls-9{fill:url(#Dégradé_sans_nom_6);}.cls-10{fill:url(#Dégradé_sans_nom_6-2);}.cls-11{fill:url(#Dégradé_sans_nom_6-3);}.cls-12{fill:url(#Dégradé_sans_nom_6-4);}.cls-13{fill:url(#Dégradé_sans_nom_7-2);}</style><linearGradient id="Dégradé_sans_nom_7" x1="-540.69" y1="1234.85" x2="-540.7" y2="1234.84" gradientTransform="matrix(532.1, 0, 0, -606.29, 287721.24, 748682.69)" gradientUnits="userSpaceOnUse"><stop offset="0" stop-color="#408333"/><stop offset="0.33" stop-color="#408734"/><stop offset="0.64" stop-color="#3e9035"/><stop offset="0.93" stop-color="#3ea136"/><stop offset="1" stop-color="#3fa535"/></linearGradient><mask id="mask" x="11.38" y="6.11" width="9.36" height="10.6" maskUnits="userSpaceOnUse"><g id="c"><path id="a" class="cls-1" d="M16.3,6.18a.5.5,0,0,0-.5,0L11.65,8.57A.5.5,0,0,0,11.4,9V13.8a.52.52,0,0,0,.25.44l4.15,2.39a.5.5,0,0,0,.5,0l4.15-2.39a.51.51,0,0,0,.24-.44V9a.54.54,0,0,0-.24-.44Z"/></g></mask><linearGradient id="Dégradé_sans_nom_5" x1="-540.72" y1="1234.85" x2="-540.7" y2="1234.86" gradientTransform="matrix(519.69, 0, 0, -606.04, 281021.92, 748377.81)" gradientUnits="userSpaceOnUse"><stop offset="0.14" stop-color="#408333"/><stop offset="0.4" stop-color="#519a34"/><stop offset="0.71" stop-color="#68b032"/><stop offset="0.91" stop-color="#73b635"/></linearGradient><mask id="mask-2" x="11.38" y="5.31" width="9.53" height="11.53" maskUnits="userSpaceOnUse"><g id="c-2" data-name="c"><path id="a-2" data-name="a" class="cls-1" d="M16.3,6.18a.5.5,0,0,0-.5,0L11.65,8.57A.5.5,0,0,0,11.4,9V13.8a.52.52,0,0,0,.25.44l4.15,2.39a.5.5,0,0,0,.5,0l4.15-2.39a.51.51,0,0,0,.24-.44V9a.54.54,0,0,0-.24-.44Z"/></g></mask><linearGradient id="Dégradé_sans_nom_6" x1="-675.25" y1="2603.81" x2="-673.55" y2="2603.81" gradientTransform="matrix(4.51, 0, 0, -1.69, 3058.27, 4416.47)" gradientUnits="userSpaceOnUse"><stop offset="0.09" stop-color="#73b635"/><stop offset="0.29" stop-color="#68b032"/><stop offset="0.6" stop-color="#519a34"/><stop offset="0.86" stop-color="#408333"/></linearGradient><linearGradient id="Dégradé_sans_nom_6-2" x1="-540.75" y1="1234.84" x2="-540.73" y2="1234.84" gradientTransform="matrix(519.13, 0, 0, -606.53, 280727.77, 748977.82)" xlink:href="#Dégradé_sans_nom_6"/><linearGradient id="Dégradé_sans_nom_6-3" x1="-1073.2" y1="1945.29" x2="-1071.5" y2="1945.29" gradientTransform="matrix(1.69, 0, 0, -3.95, 1836.12, 7697.37)" xlink:href="#Dégradé_sans_nom_6"/><linearGradient id="Dégradé_sans_nom_6-4" x1="-542.39" y1="1247.7" x2="-542.36" y2="1247.7" gradientTransform="matrix(268.59, 0, 0, -167.59, 145691.45, 209112.17)" xlink:href="#Dégradé_sans_nom_6"/><linearGradient id="Dégradé_sans_nom_7-2" x1="-542.35" y1="1247.75" x2="-542.37" y2="1247.68" gradientTransform="matrix(268.59, 0, 0, -167.59, 145691.45, 209112.17)" xlink:href="#Dégradé_sans_nom_7"/></defs><title>Plan de travail 1</title><g id="c-3" data-name="c"><path id="a-3" data-name="a" class="cls-1" d="M16.31,6.14a.52.52,0,0,0-.51,0L11.63,8.55a.5.5,0,0,0-.25.44v4.83a.52.52,0,0,0,.25.44l4.17,2.41a.52.52,0,0,0,.51,0l4.18-2.41a.5.5,0,0,0,.25-.44V9a.52.52,0,0,0-.25-.44Z"/></g><path class="cls-2" d="M21.45,26.7a.88.88,0,0,1-.42-.11l-1.31-.78c-.2-.11-.1-.14,0-.16a2.21,2.21,0,0,0,.59-.27.09.09,0,0,1,.1,0l1,.6a.13.13,0,0,0,.12,0l3.93-2.28a.11.11,0,0,0,.06-.11V19.06a.11.11,0,0,0-.06-.11L21.52,16.7a.13.13,0,0,0-.12,0L17.48,19a.14.14,0,0,0-.05.11v4.52a.12.12,0,0,0,.05.11l1,.62c.57.29.92,0,.92-.4V19.43a.12.12,0,0,1,.12-.12h.63a.12.12,0,0,1,.12.12v4.48a1.09,1.09,0,0,1-1.15,1.23,1.69,1.69,0,0,1-.89-.24l-1-.59a.83.83,0,0,1-.41-.72V19.05a.81.81,0,0,1,.41-.71l3.86-2.24a.91.91,0,0,1,.82,0l3.86,2.24a.81.81,0,0,1,.41.71v4.56a.83.83,0,0,1-.41.72l-3.94,2.28a1,1,0,0,1-.41.09Zm1.27-3.07c-1.73,0-2.08-.79-2.08-1.46a.11.11,0,0,1,.11-.12h.52a.1.1,0,0,1,.11.1c.08.52.3.78,1.35.78.83,0,1.19-.19,1.19-.64,0-.25-.1-.44-1.4-.57-1.07-.11-1.75-.35-1.75-1.21s.68-1.27,1.8-1.27,1.89.43,2,1.38a.16.16,0,0,1,0,.09.12.12,0,0,1-.08,0h-.51a.12.12,0,0,1-.11-.09c-.12-.54-.42-.72-1.24-.72s-1,.32-1,.55.12.38,1.35.54,1.79.38,1.79,1.24S24,23.63,22.72,23.63Z"/><path class="cls-3" d="M9.36,8.94a.66.66,0,0,0-.3-.44L4.88,6.1a.59.59,0,0,0-.22,0h.07a.48.48,0,0,0-.23.07L.26,8.53A.51.51,0,0,0,0,9v6.46a.25.25,0,0,0,.13.22.23.23,0,0,0,.25,0l2.52-1.42a.51.51,0,0,0,.26-.44V10.72a.48.48,0,0,1,.25-.42l1-.59a.42.42,0,0,1,.25-.06.36.36,0,0,1,.23.06l1,.59a.48.48,0,0,1,.25.42V13.8a.47.47,0,0,0,.25.41l2.4,1.38a.23.23,0,0,0,.25,0,.24.24,0,0,0,.13-.21l.14-6.44ZM29.33,0a.28.28,0,0,0-.25,0A.26.26,0,0,0,29,.25V6.67a.18.18,0,0,1-.27.16l-1-.6a.5.5,0,0,0-.5,0L23,8.62a.51.51,0,0,0-.26.43v4.83a.51.51,0,0,0,.26.44l4.17,2.41a.52.52,0,0,0,.51,0l4.17-2.41a.5.5,0,0,0,.25-.44v-12a.53.53,0,0,0-.25-.45L29.33,0Zm-.24,12.28a.12.12,0,0,1-.06.12l-1.46.84a.15.15,0,0,1-.13,0L26,12.43a.14.14,0,0,1-.06-.12V10.63a.12.12,0,0,1,.06-.12l1.46-.84a.15.15,0,0,1,.13,0l1.46.84a.13.13,0,0,1,.06.12v1.68Zm14.16-1.69a.47.47,0,0,0,.24-.42V9a.5.5,0,0,0-.25-.43L39.08,6.16a.5.5,0,0,0-.5,0L34.39,8.58a.49.49,0,0,0-.26.43v4.8a.51.51,0,0,0,.26.44l4.27,2.43a.5.5,0,0,0,.5,0l2.58-1.44a.25.25,0,0,0,0-.44l-4.31-2.48a.26.26,0,0,1-.13-.22V10.66a.25.25,0,0,1,.13-.22l1.32-.76a.24.24,0,0,1,.26,0l1.33.76a.26.26,0,0,1,.13.22v1.15a.26.26,0,0,0,.12.22.28.28,0,0,0,.25,0l2.41-1.41Z"/><path class="cls-2" d="M38.84,10.41a.07.07,0,0,1,.09,0l.77.45a.1.1,0,0,1,0,.08v.9a.09.09,0,0,1,0,.08l-.77.45a.07.07,0,0,1-.09,0l-.77-.45a.09.09,0,0,1,0-.08v-.9a.1.1,0,0,1,0-.08Z"/><path class="cls-4" d="M16.31,6.14a.52.52,0,0,0-.51,0L11.63,8.55a.5.5,0,0,0-.25.44v4.83a.52.52,0,0,0,.25.44l4.17,2.41a.52.52,0,0,0,.51,0l4.18-2.41a.5.5,0,0,0,.25-.44V9a.52.52,0,0,0-.25-.44Z"/><g class="cls-5"><path class="cls-6" d="M15.8,6.18,11.64,8.57a.53.53,0,0,0-.26.44V13.8a.48.48,0,0,0,.13.32l4.66-8a.55.55,0,0,0-.37.06Zm.41,10.5.11-.05,4.16-2.39a.51.51,0,0,0,.26-.44V9a.51.51,0,0,0-.15-.35l-4.38,8Z"/><path class="cls-7" d="M20.46,8.57,16.29,6.18l-.13,0-4.67,8a.53.53,0,0,0,.14.12l4.17,2.39a.46.46,0,0,0,.38.05l4.39-8a.52.52,0,0,0-.11-.1Z"/></g><g class="cls-8"><path class="cls-6" d="M20.74,13.8V9a.52.52,0,0,0-.27-.44L16.3,6.18a.39.39,0,0,0-.15-.06l4.56,7.79a.2.2,0,0,0,0-.11Zm-9.1-5.23a.53.53,0,0,0-.26.44V13.8a.55.55,0,0,0,.26.44l4.17,2.39a.45.45,0,0,0,.32.06L11.67,8.56Z"/><path class="cls-9" d="M15.66,5.31l-.06,0h.08Z"/><path class="cls-10" d="M20.47,14.24a.55.55,0,0,0,.24-.32l-4.57-7.8a.48.48,0,0,0-.35.06L11.65,8.56l4.46,8.14a.6.6,0,0,0,.19-.06l4.17-2.4Z"/><path class="cls-11" d="M20.91,14.16l0-.05v.07l0,0Z"/><path class="cls-12" d="M20.54,14.24l-4.16,2.39a.6.6,0,0,1-.19.06l.08.15,4.61-2.67v-.06l-.12-.2a.45.45,0,0,1-.22.33Z"/><path class="cls-13" d="M20.54,14.24l-4.16,2.39a.6.6,0,0,1-.19.06l.08.15,4.61-2.67v-.06l-.12-.2a.45.45,0,0,1-.22.33Z"/></g></svg>