<svg id="Calque_1" data-name="Calque 1" xmlns="http://www.w3.org/2000/svg" viewBox="0 0 36.76 19.14"><defs><style>.cls-1{fill:#9298c3;}.cls-2{fill:#2b2933;fill-rule:evenodd;}</style></defs><title>Plan de travail 1</title><ellipse class="cls-1" cx="18.38" cy="9.57" rx="18.38" ry="9.57"/><path class="cls-2" d="M5.16,15.29l2-10.23h4.66c2,.13,3,1.13,3,2.89a4.44,4.44,0,0,1-4.52,4.65H8.06l-.51,2.69Zm3.38-4.55.64-3.82h1.65c.89,0,1.53.38,1.53,1.15-.13,2.16-1.15,2.55-2.29,2.67Zm5.84,1.86,2-10.22h2.4l-.51,2.68h2.27c2,.13,2.76,1.13,2.51,2.39l-.88,5.15H19.68l.88-4.67c.13-.63.13-1-.76-1H17.91L16.77,12.6ZM22,15.29l2-10.23h4.66c2,.13,3,1.13,3,2.89A4.44,4.44,0,0,1,27.2,12.6H24.93l-.51,2.69Zm3.38-4.55.64-3.82H27.7c.89,0,1.53.38,1.53,1.15-.13,2.16-1.15,2.55-2.29,2.67Z"/></svg>