<?xml version="1.0" encoding="utf-8"?>
<!-- Generator: Adobe Illustrator 23.0.3, SVG Export Plug-In . SVG Version: 6.00 Build 0)  -->
<svg version="1.1" id="Calque_1" xmlns="http://www.w3.org/2000/svg" xmlns:xlink="http://www.w3.org/1999/xlink" x="0px" y="0px"
	 viewBox="0 0 40 40" style="enable-background:new 0 0 40 40;" xml:space="preserve">
<style type="text/css">
	.st0{fill:#9298C3;}
	.st1{fill-rule:evenodd;clip-rule:evenodd;fill:#2B2933;}
</style>
<title>Plan de travail 1</title>
<ellipse class="st0" cx="20" cy="20" rx="19.9" ry="10.4"/>
<path class="st1" d="M6.8,25.7l2-10.2h4.7c2,0.1,3,1.1,3,2.9c0.1,2.4-1.8,4.5-4.2,4.6c-0.1,0-0.2,0-0.3,0H9.7l-0.5,2.7H6.8z
	 M10.2,21.2l0.6-3.8h1.6c0.9,0,1.5,0.4,1.5,1.1c-0.1,2.2-1.1,2.5-2.3,2.7H10.2z M16,23l2-10.2h2.4l-0.5,2.7h2.3
	c2,0.1,2.8,1.1,2.5,2.4L23.8,23h-2.5l0.9-4.7c0.1-0.6,0.1-1-0.8-1h-1.9L18.4,23L16,23z M23.6,25.7l2-10.2h4.7c2,0.1,3,1.1,3,2.9
	c0.1,2.4-1.8,4.5-4.2,4.6c-0.1,0-0.2,0-0.2,0h-2.3L26,25.7H23.6z M27,21.2l0.6-3.8h1.7c0.9,0,1.5,0.4,1.5,1.1
	c-0.1,2.2-1.1,2.5-2.3,2.7H27z"/>
</svg>
