<svg id="Calque_1" data-name="Calque 1" xmlns="http://www.w3.org/2000/svg" viewBox="0 0 26.69 26.69"><defs><style>.cls-1{fill:#b5deec;}.cls-2{fill:#595654;}.cls-3{fill:#12100b;}.cls-4{fill:#b29b78;}.cls-5{fill:#ccbca6;}.cls-6{fill:#806852;}.cls-7{fill:#fff;}.cls-8{fill:#c4c3c4;}.cls-9{fill:#6e6d6c;}.cls-10{fill:#989796;}.cls-11{fill:#e9e3e2;}.cls-12{fill:#f8b134;}.cls-13{fill:#a31d4d;}.cls-14{fill:#da015f;}.cls-15{fill:#93785f;}</style></defs><title>Plan de travail 1</title><path class="cls-1" d="M8.65,20.48c.21-.1.43-.19.65-.27S9.79,20,10,20s.63-.18,1-.25a11.5,11.5,0,0,1,1.31-.2c-.25.78-.52,1.55-.82,2.31,0,.15,0,.3,0,.45a9.38,9.38,0,0,1,1.83-.18,9.26,9.26,0,0,1,1.84.18c0-.15,0-.3,0-.45q-.43-1.14-.81-2.31a11.5,11.5,0,0,1,1.31.2c.32.07.63.15.94.25s.5.16.75.25.43.17.65.27a11.52,11.52,0,0,1,4,3,13.35,13.35,0,1,0-17.43,0,11.52,11.52,0,0,1,4-3"/><path class="cls-2" d="M18,20.48l.83,2.84.23,0c.15,0,.26,0,.26.19a7,7,0,0,0,0,.79c.2.17.46.37.65.56a14.17,14.17,0,0,0,2-1.44,11.52,11.52,0,0,0-4-3m-1.62,0,1-.24c-.25-.09-.49-.18-.75-.25s-.62-.18-.94-.25a11.5,11.5,0,0,0-1.31-.2q.38,1.17.81,2.31c0,.15,0,.3,0,.45a9.44,9.44,0,0,1,2,.64l-.75-2.46"/><path class="cls-3" d="M6.64,24.88l.47.26a7,7,0,0,0,.17-.91c-.2.18-.45.46-.64.65m10.52-2a9.28,9.28,0,0,0-2-.62,9.41,9.41,0,0,0-1.84-.18,9.16,9.16,0,0,0-1.83.18,9.44,9.44,0,0,0-2,.62l-.06.41h7.87l-.12-.41"/><path class="cls-2" d="M7.26,24.31c0-.25,0-.47,0-.73a.24.24,0,0,1,.26-.25h.25l.84-2.85a11.52,11.52,0,0,0-4,3,13.62,13.62,0,0,0,2,1.44,7.82,7.82,0,0,1,.6-.55"/><path class="cls-3" d="M19.5,24.82c.05.27.07.32.08.32l.47-.26c-.2-.19-.4-.38-.61-.56l.06.5"/><path class="cls-4" d="M17.16,22.92l.12.41h1.61L18,20.51c-.22-.1-.43-.19-.65-.27l-1,.24.74,2.44"/><path class="cls-5" d="M7.82,23.92h0"/><path class="cls-4" d="M18.87,23.91h0"/><path class="cls-4" d="M18.87,23.76H13.4v2.87a13.26,13.26,0,0,0,5.73-1.29A8,8,0,0,1,19,23.8l-.08,0"/><path class="cls-5" d="M13.39,23.83H7.85c0,.52-.13,1.14-.17,1.57a13.33,13.33,0,0,0,5.72,1.29V23.84h0"/><path class="cls-6" d="M13.4,23.58h0v.27h0Z"/><path class="cls-4" d="M17.47,21.7h0s-.13-.11-.31-.3c.18.19.31.3.31.3"/><path class="cls-7" d="M21.61,9.65v0m.48,3.82h0"/><path class="cls-8" d="M22.09,13.47h0"/><path class="cls-9" d="M22,13.26h0a.92.92,0,0,1,0,.16v0h0v0a.76.76,0,0,1,0,.15h0l0,.16h0l.35-.37L22,13.1h0l0,.16"/><path class="cls-3" d="M22.07,13.61v0a.81.81,0,0,0,0-.16v0s0,0,0,0a.81.81,0,0,0,0-.16v0L22,13a.08.08,0,0,0,0,0,1,1,0,0,0-.12-.28l-.07-.08-.06-.06,0,0-.1,0h-.19l-.09,0,0,0-.11.11,0,0a1.46,1.46,0,0,0-.13.28h0a.8.8,0,0,0,0,.15.09.09,0,0,0,0,0,1.1,1.1,0,0,0,0,.18v0h0c0,.51.24.92.54.92a.4.4,0,0,0,.15,0l.08,0,0,0,.06-.07.05-.07,0,0a.36.36,0,0,0,0-.09l0,0,0-.13,0-.16Zm-.5-.27c-.11,0-.2-.15-.2-.34s.09-.35.2-.35.2.16.2.35S21.68,13.34,21.57,13.34Z"/><path class="cls-7" d="M21.57,12.65c-.11,0-.2.16-.2.35s.09.34.2.34.2-.15.2-.34-.09-.35-.2-.35"/><path class="cls-10" d="M21.09,13a1.13,1.13,0,0,1,.13-.27l0,0,.11-.12h0l.09,0,.1,0,.09,0,.1,0h0l.07.07a.27.27,0,0,1,.07.08A1.11,1.11,0,0,1,22,13h0l-.47-2.18L21.09,13h0"/><path class="cls-3" d="M15.25,13.44a.49.49,0,0,0,0-.12h0a.5.5,0,0,0,0-.12h0l0-.12h0l0-.12h0a1.25,1.25,0,0,0-.67-.65h0l-.23-.07h0a1,1,0,0,0-.24,0,.93.93,0,0,0-.24,0h0l-.22.07h0a1.24,1.24,0,0,0-.2.1.9.9,0,0,0-.18.15h0a1.54,1.54,0,0,0-.23.29h0a.31.31,0,0,0-.05.1h0l0,.1v0l0,.1v0a.44.44,0,0,0,0,.1v0a1.62,1.62,0,0,0,0,.38h0a2,2,0,0,0,.07.23h0a1.16,1.16,0,0,0,.26.39,1.09,1.09,0,0,0,.29.23h0l.11,0h0l.1,0h0l.1,0h0l.09,0h0a1.3,1.3,0,0,0,.84-.2,1.57,1.57,0,0,0,.34-.34,1.28,1.28,0,0,0,.21-.71h0ZM14,13.3a.48.48,0,1,1,.47-.47A.47.47,0,0,1,14,13.3Z"/><path class="cls-7" d="M14,12.3a.48.48,0,0,0-.37.79.38.38,0,0,0,.31.16H14A.45.45,0,0,0,14.4,13a.48.48,0,0,0-.4-.74"/><path class="cls-8" d="M13.11,12.49h0L14,9.84V9.22h0a7.46,7.46,0,0,0-1.49-.15l-.5,0h-.08a7.58,7.58,0,0,0-2.51.66,8.23,8.23,0,0,0-1.88,1.2h0l0,0c-.16.15-.32.29-.47.45H7a3.88,3.88,0,0,0-.39.42l-.08.09c-.13.15-.25.3-.37.46l0,.06a2.36,2.36,0,0,0-.26.36,1,1,0,0,1-.11.17l-.23.4H9.46l3.65-.9"/><path class="cls-11" d="M16.44,12.2a3,3,0,0,1,0-.31c0-.14,0-.28,0-.42V11q0-.42,0-.84h0L16.12,10h0L16,10h0l-.05,0h0l0,0-.56-.26A9.85,9.85,0,0,0,14,9.21v.63l.86,2.65h0a1.48,1.48,0,0,1,.22.29h0l.06.11h0a.56.56,0,0,1,0,.12h0a.56.56,0,0,1,0,.12h0s0,.08,0,.12h0s0,.08,0,.13h1.05a11.14,11.14,0,0,0,.15-1.16v0"/><path class="cls-12" d="M17.83,11.32h0"/><path class="cls-10" d="M13.14,12.55a.9.9,0,0,1,.18-.15,1.24,1.24,0,0,1,.2-.1h0l.22-.07h0a1.45,1.45,0,0,1,.48,0h0l.23.07a1.3,1.3,0,0,1,.39.25h0L14,9.9l-.86,2.65"/><path class="cls-9" d="M12.83,13.88a1.55,1.55,0,0,1-.07-.23h0a1.62,1.62,0,0,1,0-.38v0a.29.29,0,0,1,0-.09v0l0-.1v0l0-.1h0a.47.47,0,0,1,.05-.1h0a1.54,1.54,0,0,1,.23-.29l-3.64.9h0l3.61.88a1.16,1.16,0,0,1-.26-.39h0"/><path class="cls-11" d="M21.09,13.19a.09.09,0,0,1,0,0l0-.15v0l.47-2.17V9.56a1.94,1.94,0,0,0-1.24-.5,2.15,2.15,0,0,0-1.44.68,5.38,5.38,0,0,0-1,1.44l0,.07.24.21.52.5.24.24.24.25c.16.16.3.32.45.48l.37.42h0l0,0h1.07c0-.07,0-.14,0-.2m-3.25-1.87h0"/><path class="cls-2" d="M4.9,14.82v0a9.77,9.77,0,0,1,.49-1.09l.09-.17a.41.41,0,0,0,0-.09l.24-.4L5.84,13c.1-.16.21-.31.32-.46l0,0A5.19,5.19,0,0,1,6.55,12l.08-.1L7,11.49l.08-.08L7.54,11h0a4.76,4.76,0,0,1,4.71-3.24,4.88,4.88,0,0,1,2.49.7,4.06,4.06,0,0,1,1.68,1.73h0l0,.06h0a7.44,7.44,0,0,1,1,.71,2.55,2.55,0,0,1,.3.26l.1.09h0l0-.06c.3-1.93,1.28-3,2.28-3,.76,0,1.31.45,1.72,1.67h0a4.58,4.58,0,0,1,.34.43h0a.14.14,0,0,0,0,.06h0l0-.07A9.36,9.36,0,0,0,4.47,16.27h0a9.27,9.27,0,0,1,.43-1.45"/><path class="cls-7" d="M22.37,13.4l-.33.36h0c0,.05,0,.1,0,.14l0,0a.36.36,0,0,1,0,.09l0,0-.05.07-.06.07,0,0-.08,0a.4.4,0,0,1-.15,0c-.3,0-.54-.41-.54-.92H19.94c.2.24.4.47.59.71l.56.7,0,0,.52.68.05.06.54.72a9.49,9.49,0,0,0,.49-2.9h-.3l-.05,0"/><path class="cls-3" d="M11.94,9.14H12l.51,0A7.29,7.29,0,0,1,14,9.27h0a9.94,9.94,0,0,1,1.4.44c.18.08.37.16.55.26l0,0h0l.06,0h0l.08.05h0l.29.17h0l0-.06h0a4.82,4.82,0,0,0-4.27-2.66A4.83,4.83,0,0,0,7.54,11,8.23,8.23,0,0,1,9.42,9.8a7.34,7.34,0,0,1,2.52-.66"/><path class="cls-8" d="M22.28,10.31h0a3.39,3.39,0,0,0-.33-.42h0l-.16-.16-.06-.06-.1-.09V10.8L22.08,13h0a.43.43,0,0,1,0,0l.33.37h.34V13.3h0a9.76,9.76,0,0,0-.46-2.94h0s0,0,0,0"/><path class="cls-3" d="M18.93,9.8a2.18,2.18,0,0,1,1.44-.67,1.93,1.93,0,0,1,1.24.49h0l.1.09.07,0,.16.17h0c-.42-1.22-1.09-2-1.85-2-1,0-1.85,1.4-2.16,3.33h0a5.54,5.54,0,0,1,1-1.44M17.52,21.67a2.42,2.42,0,0,1-.31-.31,2,2,0,0,1-.22-.29L16.92,21a3,3,0,0,1-.17-.36,1.73,1.73,0,0,1-.11-.37,1.59,1.59,0,0,1-.06-.3,2.63,2.63,0,0,1,0-.49l0-.29.06-.3a3.84,3.84,0,0,1,.41-1l.05-.12c.07-.11.08-.11.15-.21a6.23,6.23,0,0,0,1.14-4.4l-.09-.54c0,.13,0,.26-.07.39s0,.08,0,.11a8,8,0,0,1-1.88,2.94c-.12.13-.24.27-.37.39s-.45.46-.68.69-.19.19-.29.29-.2.28-.33.42-.18.5-.26.77l-.11,0a12.74,12.74,0,0,1-2.85-1.54,12.35,12.35,0,0,0,2.36,2.22,3.87,3.87,0,0,0,.43.27c-.06,1,.36,1.9,2.29,2.18a4.1,4.1,0,0,0,1,0s0,0,0,0l0,0"/><path class="cls-13" d="M16.49,19.18a11.93,11.93,0,0,0,6.86-1c.06,0,.13.05.2,0a16.54,16.54,0,0,1-3.94,2.87l-.19.09-.63.25a5.58,5.58,0,0,1-1.25.31h-.06v0h0s-.13-.11-.31-.3l-.22-.29a3.83,3.83,0,0,1-.25-.44,2.74,2.74,0,0,1-.15-.4,3,3,0,0,1-.1-.79l0-.3h0"/><path class="cls-12" d="M15.26,17.23c.23-.23.46-.45.68-.69l.37-.39a8.15,8.15,0,0,0,1.91-3l0-.1v0l0-.15s.12-.11.12-.14a4.74,4.74,0,0,0-.56-1.43h0l-.1-.09a2.55,2.55,0,0,0-.3-.26,7.44,7.44,0,0,0-1-.71l0,.84v.42c0,.14,0,.28,0,.42s0,.21,0,.31v0a11.14,11.14,0,0,1-.15,1.16l-.13.59A19.07,19.07,0,0,1,15,17c-.11.26-.22.52-.32.79l0,.07.34-.35.29-.29"/><path class="cls-2" d="M9.61,22.85a8.72,8.72,0,0,1,1.9-.58c0-.15,0-.3,0-.45.3-.76.57-1.53.82-2.31a11.5,11.5,0,0,0-1.31.2c-.32.07-.63.15-1,.25s-.5.16-.74.25l1,.24L9.49,22.9l.12,0"/><path class="cls-14" d="M21.64,15.57l-.52-.67,0,0c-.18-.24-.37-.47-.56-.71l-.59-.7,0,0c-.17-.19-.33-.38-.5-.56l-.32-.34-.25-.26L18.6,12c-.17-.17-.35-.33-.53-.49a2.39,2.39,0,0,0-.23-.22h0a9.4,9.4,0,0,1,.46,1.48c0,.13.05.26.07.39a6.28,6.28,0,0,1-1.22,4.4l-.2.33a3.9,3.9,0,0,0-.41,1c0,.1,0,.19-.06.29a11.74,11.74,0,0,0,7.08-1s-.53-.78-1.33-1.85c-.17-.24-.35-.48-.53-.71l-.05-.07"/><path class="cls-4" d="M9.39,23.33l.88-2.9-1-.23-.65.26-.87,2.87,1,0,.64,0"/><path class="cls-7" d="M10,22l.26.09A9.31,9.31,0,0,0,16.86,22l.18-.08.19-.08.31-.14h-.06a4.1,4.1,0,0,1-1,0c-1.93-.28-2.35-1.21-2.29-2.17l-.43-.28A12.35,12.35,0,0,1,11.41,17a12.39,12.39,0,0,0,3,1.58h0c.08-.27.17-.53.26-.77l0-.07c.1-.27.21-.53.32-.79a19.07,19.07,0,0,0,1.21-3l.13-.59H15.25a1.28,1.28,0,0,1-.21.71,1.24,1.24,0,0,1-.56.45,1.09,1.09,0,0,1-.62.09h0l-.09,0h0l-.1,0h0l-.1,0h0l-.11-.05h0a1.09,1.09,0,0,1-.29-.23l-3.61-.88H5.64l-.15.09-.09.17-.27.55c-.08.18-.15.36-.22.54v0a9.27,9.27,0,0,0-.43,1.45,9.38,9.38,0,0,0,3.4,4.66A.71.71,0,0,1,8,21a8.79,8.79,0,0,0,.83.51A8.88,8.88,0,0,0,10,22"/><path class="cls-15" d="M19.45,24.4c0-.26,0-.52,0-.78a.28.28,0,0,0-.27-.29H7.55a.28.28,0,0,0-.27.29c0,.26,0,.52,0,.78a7.91,7.91,0,0,1-.13.85q.25.15.51.27a8,8,0,0,0,.2-1.61h11a8.77,8.77,0,0,0,.21,1.61q.25-.12.51-.27a7.91,7.91,0,0,1-.13-.85"/></svg>