<svg id="Calque_1" data-name="Calque 1" xmlns="http://www.w3.org/2000/svg" viewBox="0 0 23.33 26.66"><defs><style>.cls-1{fill:#95c138;}</style></defs><title>Plan de travail 1</title><path class="cls-1" d="M7.11,16.33a9.91,9.91,0,0,0-1.56,1.16c-.81.77-1,1.83-.55,2.08s1.32-.05,2-.77A2.9,2.9,0,0,0,7.67,16l-.11.06h0l0,0-.41.25ZM19,16c-.24.53-.25.69-.18.75a1.28,1.28,0,0,0,.93-1.24,1.46,1.46,0,0,0-.07-.39A2.83,2.83,0,0,0,19,16Zm3.74-1.58a4.51,4.51,0,0,0-2.22.26,2.76,2.76,0,0,1,.19.84,1.72,1.72,0,0,1-.85,1.42,2.89,2.89,0,0,1-.78.4,1.22,1.22,0,0,1-.61.13c-.39-.08-.6-.43-.33-1.19a3.89,3.89,0,0,1,1.22-1.59,7.25,7.25,0,0,1-.41-.92,7.41,7.41,0,0,1-.22-.93A19.3,19.3,0,0,1,17.5,15l-.12.18a3,3,0,0,1,.27,1,1.64,1.64,0,0,1-.7,1.43,2.69,2.69,0,0,1-.73.38,2.66,2.66,0,0,1-.84.19.86.86,0,0,1-.56-.09.36.36,0,0,1-.1-.49,12.67,12.67,0,0,1,1.07-1.35c.13-.15.24-.3.36-.45h0s.08-.1.21-.29a9.85,9.85,0,0,1-.48-1.07,7.41,7.41,0,0,1-.22-.93s-.55,1.43-1.13,2.57c-.45.88-.75,1.41-.89,1.65h0l-.05.09,0,0h0c-.15.23-.49.66-.83.66-.92,0-.58-1.87-.58-1.87s-.27.69-.57,1.29-.48.9-1,.9a.74.74,0,0,1-.55-.19,3.15,3.15,0,0,1-.69-2.21,6.05,6.05,0,0,1,.3-1.53l-.84.48-.46.27,0,0A3.87,3.87,0,0,1,8,19.25a3.58,3.58,0,0,1-3.86,1.57C3.7,20.68,3,19.68,3.6,18.29,4.15,17.06,6.37,15.9,7,15.61l.16-.09C6,14.5,3,13.13,2.63,11c-.11-.59.17-2,1.91-3.65A15.87,15.87,0,0,1,10,4.26c3.17-1.13,6.52-.47,7,1.56S15.77,10.19,13.56,11a6.94,6.94,0,0,1-4.28.42,2.13,2.13,0,0,1-1.31-1c0-.11-.12-.3,0-.36s.1,0,.29.18a2.72,2.72,0,0,0,2.3.58c3.65-.41,5.85-3.25,5.15-4.77-.48-1.07-3.3-1.55-6.81.2-4.29,2.14-4.52,3.9-4.56,4.57C4.24,12.67,6.61,13.64,7.9,15l0,.05.74-.4,1.54-.85a3.14,3.14,0,0,1,2-1.38c1.06,0,.7,1.52.7,1.52s0-.07,0-.07a.41.41,0,0,1,.47-.08c.34.12.26.36.26.38s-.4,1.4-.56,2.27a1.34,1.34,0,0,0,0,.71s.1-.1.16-.22h0a2,2,0,0,0,.12-.24l0,0h0c.13-.25.25-.51.37-.77.3-.65,1.42-3.15,1.51-3.43s.15-.56.19-.68.44-.22.91-.21.51.2.51.24a7.36,7.36,0,0,0-.27,1,3,3,0,0,0,0,.91,2.89,2.89,0,0,0,.32.79,16.07,16.07,0,0,0,1.4-2.7,5.07,5.07,0,0,1,.19-.69c.05-.12.44-.21.91-.21s.51.2.51.24a7.19,7.19,0,0,0-.27,1,3,3,0,0,0,0,.91,4.2,4.2,0,0,0,.46,1.07,4.76,4.76,0,0,1,2.08-.48,9.41,9.41,0,0,1,1,.09V7.3a1.26,1.26,0,0,0-.62-1.1L12.27.17A1.24,1.24,0,0,0,11,.17L.6,6.2A1.24,1.24,0,0,0,0,7.29V19.41a1.22,1.22,0,0,0,.6,1.08l10.36,6a1.25,1.25,0,0,0,1.24,0l10.37-6a1.24,1.24,0,0,0,.62-1.08V14.5a3.73,3.73,0,0,0-.42-.1Zm-11.24-.63a4.89,4.89,0,0,0-.79,1.44c-.35,1.08-.2,2.17,0,2.24s.78-1.36,1-1.93a7.21,7.21,0,0,0,.58-2.12c-.09-.16-.49,0-.85.37Zm4.06,3.63s-.07.06,0,.08.13,0,.23-.05c.28-.18.9-.61.9-1.25v-.06l-.39.5C16.09,16.86,15.59,17.4,15.59,17.4Z"/></svg>