<svg id="Calque_1" data-name="Calque 1" xmlns="http://www.w3.org/2000/svg" viewBox="0 0 28.82 28.82"><defs><style>.cls-1{fill:#241e1e;}.cls-2{fill:#fff;}</style></defs><title>Plan de travail 1</title><circle class="cls-1" cx="14.41" cy="14.41" r="14.41"/><path class="cls-2" d="M20.68,5.32A5.19,5.19,0,0,0,17,7.3a12.34,12.34,0,0,0-2.25,4.15c-.91-.74-1.6-1.7-3.05-2.12A3.7,3.7,0,0,0,8.32,10a3,3,0,0,0-1,1.5,3.38,3.38,0,0,0,.86,3.12l.88.95a1.33,1.33,0,0,1,.41,1.36,1.63,1.63,0,0,1-2.08,1c-.41-.13-1-.44-.88-.88a4,4,0,0,1,.25-.46,2,2,0,0,0,.12-.3,1.17,1.17,0,0,0-.66-1.46,1,1,0,0,0-1.35.68c-.25.81.14,2.29,2.23,2.94,2.44.75,4.51-.58,4.8-2.32.19-1.09-.3-1.9-1.2-2.94l-.74-.81a1.34,1.34,0,0,1-.13-1.78,1.56,1.56,0,0,1,1.84-.45c1.32.36,1.91,1.27,2.89,2-.4,1.33-.67,2.67-.91,3.86l-.14.9c-.7,3.68-1.24,5.7-2.63,6.86a2.27,2.27,0,0,1-1.29.52c-.32,0-.42-.21-.42-.3s.18-.33.3-.43a.76.76,0,0,0,.45-.8,1.22,1.22,0,0,0-1.31-1.17,1.52,1.52,0,0,0-1.41,1.54c0,1,1,1.78,2.41,1.73a5.73,5.73,0,0,0,4.15-2.33,14.5,14.5,0,0,0,2.92-6.85l.46-2.53a7,7,0,0,0,.82,0c2.44.06,3.66-1.21,3.68-2.13a1,1,0,0,0-.89-1.09,1,1,0,0,0-1,.79c-.11.51.78,1,.08,1.42a3.85,3.85,0,0,1-2.61.36l.22-1.25c.46-2.37,1-5.28,3.19-5.35.16,0,.73,0,.75.38,0,.13,0,.16-.18.45a1.05,1.05,0,0,0-.2.65,1,1,0,0,0,1.15,1A1.25,1.25,0,0,0,23.28,7c0-1-1.14-1.7-2.6-1.66Z"/></svg>