<svg id="Calque_1" data-name="Calque 1" xmlns="http://www.w3.org/2000/svg" viewBox="0 0 25.66 29.03"><defs><style>.cls-1{fill:#fff;}.cls-2{fill:#a3d7f6;}.cls-3{fill:#1f74ba;}</style></defs><title>Plan de travail 1</title><path class="cls-1" d="M12.83,0,25.66,7.26V21.77L12.83,29,0,21.77V7.26Z"/><path class="cls-2" d="M23.31,21.26,13.22,27V22.52l6.29-3.46Zm.79-.57V8.63l-3.73,2.15v7.76l3.73,2.15Zm-21.76.57L12.44,27V22.52L6.15,19.06l-3.81,2.2Zm-.78-.57V8.63l3.73,2.15v7.76L1.56,20.69ZM2.09,7.92,12.44,2.06v4.3L5.81,10l0,0Zm21.48,0L13.22,2.06v4.3L19.85,10l0,0Z"/><path class="cls-3" d="M12.44,21.52,6.22,18.1V11.33l6.22,3.59v6.57m.78,0,6.22-3.42V11.33l-6.22,3.59v6.57M6.62,10.56l6.23-3.43,6.23,3.43-6.23,3.59L6.62,10.56"/></svg>