<svg id="Calque_1" data-name="Calque 1" xmlns="http://www.w3.org/2000/svg" xmlns:xlink="http://www.w3.org/1999/xlink" viewBox="0 0 26.64 26.64"><defs><style>.cls-1{fill:none;}.cls-2{clip-path:url(#clip-path);}.cls-3{fill:#00709a;}</style><clipPath id="clip-path"><rect class="cls-1" width="26.64" height="26.64"/></clipPath></defs><title>Plan de travail 1</title><g class="cls-2"><path class="cls-3" d="M1.86,13.34A11.48,11.48,0,0,0,8.31,23.65l-5.46-15a11.54,11.54,0,0,0-1,4.66ZM21,12.77a6,6,0,0,0-.95-3.16A5.33,5.33,0,0,1,19,6.92a2,2,0,0,1,1.92-2H21A11.45,11.45,0,0,0,3.75,7.06h.73c1.2,0,3.05-.15,3.05-.15a.48.48,0,0,1,.08,1S7,7.94,6.3,8l4.16,12.4L13,12.86,11.19,8c-.62,0-1.2-.11-1.2-.11a.48.48,0,0,1,.07-1s1.89.15,3,.15,3.05-.15,3.05-.15a.48.48,0,0,1,.08,1s-.62.07-1.31.11L19,20.28l1.15-3.81a14.06,14.06,0,0,0,.87-3.7Z"/><path class="cls-3" d="M13.51,14.34l-3.43,10a11.39,11.39,0,0,0,7-.18A.8.8,0,0,1,17,24Zm9.84-6.49A8.76,8.76,0,0,1,23.43,9a10.86,10.86,0,0,1-.87,4.1l-3.5,10.11A11.43,11.43,0,0,0,23.35,7.85Z"/><path class="cls-3" d="M13.31,0A13.35,13.35,0,1,0,26.65,13.34,13.36,13.36,0,0,0,13.31,0Zm0,26.08A12.74,12.74,0,1,1,26,13.34,12.75,12.75,0,0,1,13.31,26.08Z"/></g></svg>